<svg width="300" height="319" viewBox="0 0 300 319" fill="none" xmlns="http://www.w3.org/2000/svg">
<g filter="url(#filter0_d_378_283)">
<path d="M245.385 -105.279C253.479 -164.911 302.155 -176.118 322.184 -161.905C365.429 -131.218 506.958 -23.9489 433.695 79.2939C342.844 207.323 242.931 230.453 252.554 200.012C262.177 169.572 245.329 128.211 203.535 141.293C161.741 154.376 234.009 91.1153 181.785 71.1525C140.006 55.1824 150.285 22.6852 169.641 -4.59226C184.158 -25.0503 237.291 -45.6479 245.385 -105.279Z" fill="#1D4ED8"/>
<path d="M245.385 -105.279C253.479 -164.911 302.155 -176.118 322.184 -161.905C365.429 -131.218 506.958 -23.9489 433.695 79.2939C342.844 207.323 242.931 230.453 252.554 200.012C262.177 169.572 245.329 128.211 203.535 141.293C161.741 154.376 234.009 91.1153 181.785 71.1525C140.006 55.1824 150.285 22.6852 169.641 -4.59226C184.158 -25.0503 237.291 -45.6479 245.385 -105.279Z" stroke="#60A5FA"/>
</g>
<g filter="url(#filter1_d_378_283)">
<circle cx="221.136" cy="178.391" r="19" transform="rotate(125.36 221.136 178.391)" fill="#1D4ED8"/>
</g>
<defs>
<filter id="filter0_d_378_283" x="148.282" y="-167.948" width="310.6" height="388.446" filterUnits="userSpaceOnUse" color-interpolation-filters="sRGB">
<feFlood flood-opacity="0" result="BackgroundImageFix"/>
<feColorMatrix in="SourceAlpha" type="matrix" values="0 0 0 0 0 0 0 0 0 0 0 0 0 0 0 0 0 0 127 0" result="hardAlpha"/>
<feOffset dy="4"/>
<feGaussianBlur stdDeviation="2"/>
<feComposite in2="hardAlpha" operator="out"/>
<feColorMatrix type="matrix" values="0 0 0 0 0 0 0 0 0 0 0 0 0 0 0 0 0 0 0.25 0"/>
<feBlend mode="normal" in2="BackgroundImageFix" result="effect1_dropShadow_378_283"/>
<feBlend mode="normal" in="SourceGraphic" in2="effect1_dropShadow_378_283" result="shape"/>
</filter>
<filter id="filter1_d_378_283" x="198.135" y="159.39" width="46.0032" height="46.0029" filterUnits="userSpaceOnUse" color-interpolation-filters="sRGB">
<feFlood flood-opacity="0" result="BackgroundImageFix"/>
<feColorMatrix in="SourceAlpha" type="matrix" values="0 0 0 0 0 0 0 0 0 0 0 0 0 0 0 0 0 0 127 0" result="hardAlpha"/>
<feOffset dy="4"/>
<feGaussianBlur stdDeviation="2"/>
<feComposite in2="hardAlpha" operator="out"/>
<feColorMatrix type="matrix" values="0 0 0 0 0 0 0 0 0 0 0 0 0 0 0 0 0 0 0.25 0"/>
<feBlend mode="normal" in2="BackgroundImageFix" result="effect1_dropShadow_378_283"/>
<feBlend mode="normal" in="SourceGraphic" in2="effect1_dropShadow_378_283" result="shape"/>
</filter>
</defs>
</svg>
