<svg width="170" height="77" viewBox="0 0 170 77" fill="none" xmlns="http://www.w3.org/2000/svg">
<rect width="4.59254" height="14.6903" transform="matrix(-0.640715 0.767779 0.767779 0.640715 48.0122 45.5878)" fill="#0F172A"/>
<rect width="7.80374" height="34.5146" rx="3.90187" transform="matrix(-0.640715 0.767779 0.767779 0.640715 54.0005 48.4774)" fill="#0F172A"/>
<path d="M5.9331 39.1465C5.39797 39.2589 4.87087 38.9166 4.78043 38.3773C4.26098 35.2797 4.35064 32.1073 5.04796 29.0383C5.81849 25.6473 7.31275 22.4628 9.42845 19.7029C11.5441 16.943 14.2313 14.6729 17.3059 13.0481C20.3804 11.4233 23.7699 10.4821 27.242 10.289C30.7142 10.0959 34.187 10.6554 37.4228 11.9293C40.6586 13.2031 43.5809 15.1612 45.9896 17.6695C48.3983 20.1778 50.2365 23.1769 51.3783 26.4617C52.4116 29.4343 52.8525 32.5773 52.6797 35.7133C52.6497 36.2593 52.1638 36.658 51.6195 36.6056C51.0752 36.5531 50.6788 36.0694 50.7068 35.5233C50.8534 32.6715 50.4475 29.8149 49.5078 27.1118C48.4597 24.0966 46.7724 21.3435 44.5613 19.0411C42.3503 16.7386 39.6678 14.9412 36.6975 13.7718C33.7272 12.6025 30.5392 12.0889 27.352 12.2661C24.1647 12.4434 21.0534 13.3074 18.2311 14.7989C15.4088 16.2904 12.9421 18.3742 11 20.9076C9.05794 23.4411 7.68627 26.3643 6.97897 29.4771C6.34488 32.2677 6.25816 35.1517 6.72009 37.9696C6.80856 38.5092 6.46824 39.034 5.9331 39.1465Z" fill="#1D4ED8"/>
<path d="M15.8191 23.7744C15.1694 23.3185 15.0078 22.4174 15.5182 21.8096C17.4937 19.4568 20.0902 17.6903 23.025 16.7203C26.4161 15.5993 30.0782 15.6014 33.468 16.7261C36.8579 17.8509 39.7949 20.0384 41.8433 22.9641C43.8918 25.8899 44.9425 29.398 44.8397 32.9681C44.7369 36.5382 43.486 39.98 41.2726 42.783C39.0591 45.586 36.0011 47.6009 32.5522 48.5287C29.1032 49.4565 25.4471 49.2478 22.1261 47.9336C19.252 46.7962 16.7615 44.8832 14.9246 42.4207C14.45 41.7844 14.6632 40.8942 15.3381 40.4764C16.0129 40.0586 16.893 40.2725 17.379 40.9001C18.8823 42.8411 20.8846 44.3511 23.1837 45.2609C25.93 46.3477 28.9534 46.5203 31.8055 45.753C34.6576 44.9858 37.1864 43.3197 39.0168 41.0017C40.8471 38.6838 41.8815 35.8376 41.9666 32.8853C42.0516 29.9331 41.1827 27.0321 39.4887 24.6126C37.7948 22.1932 35.3661 20.3843 32.5629 19.4542C29.7597 18.5241 26.7313 18.5224 23.9271 19.4493C21.5794 20.2254 19.4936 21.6176 17.881 23.4689C17.3597 24.0674 16.4688 24.2304 15.8191 23.7744Z" fill="#1D4ED8"/>
<path fill-rule="evenodd" clip-rule="evenodd" d="M44.5688 0.417053C42.3971 1.04627 31.829 9.16129 28.3313 22.8023C27.6807 22.6577 27.0327 22.5072 26.3824 22.3562C19.6919 20.8023 12.7514 19.1904 0 23.3346C16.7889 19.8369 33.9277 32.7784 22.3853 54.8139L25.883 55.5134H29.0309L33.9277 46.0696C34.6272 48.0517 36.0263 52.5054 36.0263 54.4641C36.0263 56.4228 40.6899 52.7152 43.0217 50.6166C43.4737 46.6889 42.4823 43.1655 41.2636 38.834C40.0297 34.4487 38.5628 29.2352 38.1249 21.9355C37.2545 7.42592 42.0039 2.51567 44.5688 0.417053ZM23.3419 19.9314C26.6474 19.9314 29.327 17.3188 29.327 14.0959C29.327 10.8731 26.6474 8.26042 23.3419 8.26042C20.0364 8.26042 17.3568 10.8731 17.3568 14.0959C17.3568 17.3188 20.0364 19.9314 23.3419 19.9314Z" fill="#0F172A"/>
<path d="M51.6073 33.564C53.4649 33.564 54.9911 35.075 54.7762 36.9202C54.066 43.0179 51.4352 48.73 47.2537 53.1189C42.3125 58.3051 35.6108 61.2187 28.6229 61.2187C21.635 61.2187 14.9334 58.3051 9.99217 53.1189C5.81071 48.73 3.17985 43.0179 2.4697 36.9202C2.25481 35.075 3.78097 33.564 5.63861 33.564C7.49626 33.564 8.97519 35.0791 9.26345 36.9142C9.92628 41.1339 11.8304 45.0628 14.749 48.1261C18.4286 51.9883 23.4192 54.158 28.6229 54.158C33.8267 54.158 38.8173 51.9882 42.4969 48.1261C45.4155 45.0628 47.3196 41.1339 47.9824 36.9142C48.2707 35.0791 49.7496 33.564 51.6073 33.564Z" fill="#1D4ED8"/>
<rect width="5.7647" height="5.7647" rx="2.88235" transform="matrix(1 0 0 -1 11.5293 39.5345)" fill="#D9D9D9"/>
<rect width="1.64667" height="1.64667" rx="0.823334" transform="matrix(1 0 0 -1 15.2354 33.3582)" fill="#D9D9D9"/>
<path d="M84.7422 29.9375V47H82.4805V29.9375H84.7422ZM91.8906 37.6133V39.4648H84.25V37.6133H91.8906ZM93.0508 29.9375V31.7891H84.25V29.9375H93.0508ZM101.506 29.9375H107.155C108.436 29.9375 109.518 30.1328 110.401 30.5234C111.291 30.9141 111.967 31.4922 112.428 32.2578C112.897 33.0156 113.131 33.9492 113.131 35.0586C113.131 35.8398 112.971 36.5547 112.651 37.2031C112.338 37.8438 111.885 38.3906 111.291 38.8438C110.705 39.2891 110.002 39.6211 109.182 39.8398L108.549 40.0859H103.24L103.217 38.2461H107.225C108.037 38.2461 108.713 38.1055 109.252 37.8242C109.791 37.5352 110.198 37.1484 110.471 36.6641C110.744 36.1797 110.881 35.6445 110.881 35.0586C110.881 34.4023 110.752 33.8281 110.494 33.3359C110.237 32.8438 109.83 32.4648 109.276 32.1992C108.729 31.9258 108.022 31.7891 107.155 31.7891H103.768V47H101.506V29.9375ZM111.479 47L107.33 39.2656L109.686 39.2539L113.893 46.8594V47H111.479ZM124.481 29.9375V47H122.219V29.9375H124.481ZM147.479 29.9375V47H145.206L136.616 33.8398V47H134.354V29.9375H136.616L145.241 43.1328V29.9375H147.479Z" fill="#0F172A"/>
<path d="M163.2 29.9375V47H160.974V29.9375H163.2ZM168.685 29.9375V31.7891H155.501V29.9375H168.685Z" fill="#1D4ED8"/>
</svg>
