<svg width="34" height="44" viewBox="0 0 34 44" fill="none" xmlns="http://www.w3.org/2000/svg">
<path d="M33.0615 14.9933L18.2429 9.23532C17.4354 8.92156 16.5641 8.92156 15.7571 9.23532L0.937922 14.9933C-0.312641 15.4791 -0.312641 17.5706 0.937922 18.0564L3.52139 19.0602C2.95455 19.9464 2.60605 21.0274 2.57152 22.2112C2.05992 22.5821 1.69973 23.2513 1.69973 24.0502C1.69973 24.7744 2.00148 25.3838 2.43605 25.7735L1.07977 33.492C0.961828 34.1632 1.36558 34.8002 1.90905 34.8002H4.88989C5.43389 34.8002 5.83764 34.1632 5.7197 33.492L4.36342 25.7735C4.79798 25.3838 5.09973 24.7744 5.09973 24.0502C5.09973 23.2728 4.75602 22.6224 4.2678 22.2448C4.30817 21.2357 4.71617 20.3434 5.36695 19.7777L15.7566 23.815C16.2379 24.0018 17.1612 24.2349 18.2423 23.815L33.0615 18.057C34.3126 17.5706 34.3126 15.4797 33.0615 14.9933ZM18.7417 25.8703C17.226 26.4588 15.9346 26.1337 15.2572 25.8703L7.55305 22.8771L6.79973 30.5002C6.79973 32.8752 11.3664 34.8002 16.9997 34.8002C22.6331 34.8002 27.1997 32.8752 27.1997 30.5002L26.4464 22.8764L18.7417 25.8703Z" fill="#6F6F6F"/>
</svg>
