<svg width="36" height="29" viewBox="0 0 36 29" fill="none" xmlns="http://www.w3.org/2000/svg">
<path d="M33 0.5H3C1.34375 0.5 0 1.84375 0 3.5V25.5C0 27.1562 1.34375 28.5 3 28.5H33C34.6562 28.5 36 27.1562 36 25.5V3.5C36 1.84375 34.6562 0.5 33 0.5ZM11 6.5C13.2063 6.5 15 8.29375 15 10.5C15 12.7063 13.2063 14.5 11 14.5C8.79375 14.5 7 12.7063 7 10.5C7 8.29375 8.79375 6.5 11 6.5ZM18 21.3C18 21.9625 17.375 22.5 16.6 22.5H5.4C4.625 22.5 4 21.9625 4 21.3V20.1C4 18.1125 5.88125 16.5 8.2 16.5H8.5125C9.28125 16.8188 10.1187 17 11 17C11.8813 17 12.725 16.8188 13.4875 16.5H13.8C16.1187 16.5 18 18.1125 18 20.1V21.3ZM32 18C32 18.275 31.775 18.5 31.5 18.5H22.5C22.225 18.5 22 18.275 22 18V17C22 16.725 22.225 16.5 22.5 16.5H31.5C31.775 16.5 32 16.725 32 17V18ZM32 14C32 14.275 31.775 14.5 31.5 14.5H22.5C22.225 14.5 22 14.275 22 14V13C22 12.725 22.225 12.5 22.5 12.5H31.5C31.775 12.5 32 12.725 32 13V14ZM32 10C32 10.275 31.775 10.5 31.5 10.5H22.5C22.225 10.5 22 10.275 22 10V9C22 8.725 22.225 8.5 22.5 8.5H31.5C31.775 8.5 32 8.725 32 9V10Z" fill="#6F6F6F"/>
</svg>
