<svg width="20" height="20" viewBox="0 0 20 20" fill="none" xmlns="http://www.w3.org/2000/svg">
<path d="M15 12.5C14.1169 12.5 13.3052 12.8054 12.6645 13.3162L8.66109 10.8141C8.77965 10.2778 8.77965 9.72213 8.66109 9.18586L12.6645 6.68375C13.3052 7.19457 14.1169 7.5 15 7.5C17.0711 7.5 18.75 5.82105 18.75 3.75C18.75 1.67895 17.0711 0 15 0C12.9289 0 11.25 1.67895 11.25 3.75C11.25 4.02961 11.2809 4.30195 11.3389 4.5641L7.33555 7.06621C6.6948 6.55543 5.88312 6.25 5 6.25C2.92895 6.25 1.25 7.92895 1.25 10C1.25 12.0711 2.92895 13.75 5 13.75C5.88312 13.75 6.6948 13.4446 7.33555 12.9338L11.3389 15.4359C11.2797 15.7032 11.2499 15.9762 11.25 16.25C11.25 18.3211 12.9289 20 15 20C17.0711 20 18.75 18.3211 18.75 16.25C18.75 14.1789 17.0711 12.5 15 12.5Z" fill="#1D4ED8"/>
</svg>
