<svg width="194" height="77" viewBox="0 0 194 77" fill="none" xmlns="http://www.w3.org/2000/svg">
<rect width="4.27877" height="13.6866" transform="matrix(-0.640715 0.767779 0.767779 0.640715 44.7319 45.1036)" fill="#0F172A"/>
<rect width="7.27057" height="32.1565" rx="3.63528" transform="matrix(-0.640715 0.767779 0.767779 0.640715 50.311 47.7957)" fill="#0F172A"/>
<path d="M5.5278 39.1025C5.02923 39.2073 4.53813 38.8883 4.45387 38.3858C3.96991 35.4999 4.05345 32.5442 4.70313 29.685C5.42101 26.5256 6.81318 23.5587 8.78432 20.9873C10.7555 18.416 13.259 16.301 16.1235 14.7872C18.988 13.2734 22.1459 12.3965 25.3808 12.2166C28.6157 12.0367 31.8513 12.558 34.8661 13.7448C37.8808 14.9317 40.6034 16.756 42.8475 19.0929C45.0916 21.4298 46.8042 24.224 47.868 27.2843C48.8307 30.0539 49.2415 32.9821 49.0806 35.9039C49.0525 36.4126 48.5998 36.7841 48.0927 36.7352C47.5856 36.6863 47.2163 36.2356 47.2424 35.7268C47.379 33.0699 47.0008 30.4085 46.1254 27.8901C45.1489 25.0809 43.5768 22.5159 41.5168 20.3708C39.4568 18.2256 36.9576 16.551 34.1902 15.4615C31.4229 14.3721 28.4528 13.8936 25.4833 14.0587C22.5138 14.2239 19.615 15.0288 16.9855 16.4184C14.3561 17.808 12.0579 19.7494 10.2485 22.1098C8.43913 24.4701 7.16118 27.1936 6.5022 30.0938C5.91143 32.6937 5.83064 35.3806 6.26102 38.006C6.34343 38.5088 6.02636 38.9977 5.5278 39.1025Z" fill="#1D4ED8"/>
<path d="M14.7383 24.7806C14.133 24.3558 13.9824 23.5163 14.458 22.95C16.2986 20.758 18.7176 19.1122 21.4519 18.2084C24.6113 17.164 28.0232 17.166 31.1815 18.2139C34.3397 19.2617 37.076 21.2998 38.9845 24.0256C40.893 26.7515 41.872 30.0199 41.7762 33.3461C41.6804 36.6723 40.5149 39.879 38.4528 42.4905C36.3906 45.102 33.5415 46.9792 30.3282 47.8436C27.1149 48.708 23.7085 48.5135 20.6144 47.2891C17.9367 46.2294 15.6163 44.4472 13.905 42.1529C13.4628 41.5601 13.6615 40.7307 14.2902 40.3414C14.9189 39.9522 15.7389 40.1515 16.1917 40.7362C17.5923 42.5446 19.4578 43.9514 21.5998 44.7991C24.1584 45.8116 26.9753 45.9724 29.6325 45.2576C32.2897 44.5428 34.6458 42.9904 36.3511 40.8309C38.0564 38.6713 39.0201 36.0196 39.0993 33.269C39.1785 30.5185 38.369 27.8157 36.7908 25.5615C35.2126 23.3074 32.9498 21.6221 30.3381 20.7555C27.7265 19.889 24.905 19.8874 22.2924 20.751C20.1051 21.474 18.1618 22.7712 16.6594 24.496C16.1737 25.0536 15.3436 25.2054 14.7383 24.7806Z" fill="#1D4ED8"/>
<path fill-rule="evenodd" clip-rule="evenodd" d="M41.5238 3.01904C39.5004 3.60527 29.6544 11.1659 26.3957 23.8749C25.7894 23.7402 25.1858 23.6 24.5799 23.4592C18.3465 22.0115 11.8802 20.5097 0 24.3708C15.6419 21.1121 31.6096 33.1693 20.8558 53.6993L24.1146 54.351H27.0474L31.6096 45.5525C32.2614 47.3991 33.5648 51.5485 33.5648 53.3734C33.5648 55.1983 37.9098 51.7441 40.0823 49.7888C40.5034 46.1295 39.5798 42.8468 38.4443 38.8113C37.2947 34.7255 35.928 29.8682 35.5201 23.0673C34.7092 9.54905 39.134 4.97428 41.5238 3.01904ZM21.7472 21.2002C24.8268 21.2002 27.3234 18.766 27.3234 15.7634C27.3234 12.7607 24.8268 10.3266 21.7472 10.3266C18.6675 10.3266 16.171 12.7607 16.171 15.7634C16.171 18.766 18.6675 21.2002 21.7472 21.2002Z" fill="#0F172A"/>
<path d="M48.0812 33.9014C49.812 33.9014 51.2339 35.3091 51.0336 37.0282C50.372 42.7093 47.9209 48.0312 44.0251 52.1202C39.4215 56.9521 33.1777 59.6666 26.6673 59.6666C20.1568 59.6666 13.913 56.9521 9.30941 52.1202C5.41364 48.0312 2.96253 42.7093 2.3009 37.0282C2.10069 35.3091 3.52258 33.9014 5.2533 33.9014C6.98403 33.9014 8.36191 35.3129 8.63048 37.0226C9.24802 40.954 11.0221 44.6145 13.7412 47.4686C17.1694 51.0668 21.8191 53.0883 26.6673 53.0883C31.5155 53.0883 36.1651 51.0668 39.5933 47.4686C42.3125 44.6145 44.0865 40.954 44.7041 37.0226C44.9726 35.3129 46.3505 33.9014 48.0812 33.9014Z" fill="#1D4ED8"/>
<rect width="5.37084" height="5.37084" rx="2.68542" transform="matrix(1 0 0 -1 10.7416 39.4639)" fill="#D9D9D9"/>
<rect width="1.53416" height="1.53416" rx="0.767081" transform="matrix(1 0 0 -1 14.1943 33.7095)" fill="#D9D9D9"/>
<path d="M80.6562 26.25V49H77.6406V26.25H80.6562ZM90.1875 36.4844V38.9531H80V36.4844H90.1875ZM91.7344 26.25V28.7188H80V26.25H91.7344ZM103.008 26.25H110.539C112.248 26.25 113.69 26.5104 114.868 27.0312C116.055 27.5521 116.956 28.3229 117.571 29.3438C118.196 30.3542 118.508 31.599 118.508 33.0781C118.508 34.1198 118.295 35.0729 117.868 35.9375C117.451 36.7917 116.847 37.5208 116.055 38.125C115.274 38.7188 114.336 39.1615 113.243 39.4531L112.399 39.7812H105.321L105.289 37.3281H110.633C111.716 37.3281 112.618 37.1406 113.336 36.7656C114.055 36.3802 114.597 35.8646 114.961 35.2188C115.326 34.5729 115.508 33.8594 115.508 33.0781C115.508 32.2031 115.336 31.4375 114.993 30.7812C114.649 30.125 114.107 29.6198 113.368 29.2656C112.638 28.901 111.696 28.7188 110.539 28.7188H106.024V49H103.008V26.25ZM116.305 49L110.774 38.6875L113.914 38.6719L119.524 48.8125V49H116.305ZM133.641 26.25V49H130.626V26.25H133.641ZM164.306 26.25V49H161.274L149.821 31.4531V49H146.806V26.25H149.821L161.321 43.8438V26.25H164.306Z" fill="black"/>
<path d="M185.267 26.25V49H182.298V26.25H185.267ZM192.579 26.25V28.7188H175.001V26.25H192.579Z" fill="#1D4ED8"/>
</svg>
