<svg width="52" height="53" viewBox="0 0 52 53" fill="none" xmlns="http://www.w3.org/2000/svg">
<g filter="url(#filter0_d_250_58)">
<rect x="4" y="0.5" width="44" height="44" rx="6" fill="white" shape-rendering="crispEdges"/>
<path fill-rule="evenodd" clip-rule="evenodd" d="M35 24.5C35 29.4706 30.9706 33.5 26 33.5C21.0294 33.5 17 29.4706 17 24.5C17 19.5294 21.0294 15.5 26 15.5C30.9706 15.5 35 19.5294 35 24.5ZM26 29.5C28.7614 29.5 31 27.2614 31 24.5C31 21.7386 28.7614 19.5 26 19.5C23.2386 19.5 21 21.7386 21 24.5C21 27.2614 23.2386 29.5 26 29.5ZM26 31.5C29.866 31.5 33 28.366 33 24.5C33 20.634 29.866 17.5 26 17.5C22.134 17.5 19 20.634 19 24.5C19 28.366 22.134 31.5 26 31.5ZM27 21.5C27 20.9477 26.5523 20.5 26 20.5C25.4477 20.5 25 20.9477 25 21.5V24.5C25 25.0523 25.4477 25.5 26 25.5C26.5523 25.5 27 25.0523 27 24.5V21.5Z" fill="#1D4ED8"/>
<path d="M31.5 18L33 16.5" stroke="#1D4ED8" stroke-width="2" stroke-linecap="round"/>
<path d="M24.0681 12.8706C24.1821 12.7643 24.4332 12.6703 24.7825 12.6033C25.1318 12.5363 25.5597 12.5 26 12.5C26.4403 12.5 26.8682 12.5363 27.2175 12.6033C27.5668 12.6703 27.8179 12.7643 27.9319 12.8706" stroke="#1D4ED8" stroke-width="2" stroke-linecap="round"/>
</g>
<defs>
<filter id="filter0_d_250_58" x="0" y="0.5" width="52" height="52" filterUnits="userSpaceOnUse" color-interpolation-filters="sRGB">
<feFlood flood-opacity="0" result="BackgroundImageFix"/>
<feColorMatrix in="SourceAlpha" type="matrix" values="0 0 0 0 0 0 0 0 0 0 0 0 0 0 0 0 0 0 127 0" result="hardAlpha"/>
<feOffset dy="4"/>
<feGaussianBlur stdDeviation="2"/>
<feComposite in2="hardAlpha" operator="out"/>
<feColorMatrix type="matrix" values="0 0 0 0 0 0 0 0 0 0 0 0 0 0 0 0 0 0 0.25 0"/>
<feBlend mode="normal" in2="BackgroundImageFix" result="effect1_dropShadow_250_58"/>
<feBlend mode="normal" in="SourceGraphic" in2="effect1_dropShadow_250_58" result="shape"/>
</filter>
</defs>
</svg>
