<svg width="52" height="53" viewBox="0 0 52 53" fill="none" xmlns="http://www.w3.org/2000/svg">
<g filter="url(#filter0_d_250_54)">
<rect x="4" y="0.5" width="44" height="44" rx="6" fill="white" shape-rendering="crispEdges"/>
<circle cx="22" cy="25.5" r="3" fill="#1D4ED8" stroke="#1D4ED8" stroke-width="2"/>
<path d="M32.2071 16.7071C32.5976 16.3166 32.5976 15.6834 32.2071 15.2929C31.8166 14.9024 31.1834 14.9024 30.7929 15.2929L32.2071 16.7071ZM32.2929 20.2071L33 20.9142L34.4142 19.5L33.7071 18.7929L32.2929 20.2071ZM30.2929 20.2071L31 20.9142L32.4142 19.5L31.7071 18.7929L30.2929 20.2071ZM23.2929 22.7929C22.9024 23.1834 22.9024 23.8166 23.2929 24.2071C23.6834 24.5976 24.3166 24.5976 24.7071 24.2071L23.2929 22.7929ZM29.7929 21.7071L30.5 22.4142L31.9142 21L31.2071 20.2929L29.7929 21.7071ZM31.2071 17.7071L32.2071 16.7071L30.7929 15.2929L29.7929 16.2929L31.2071 17.7071ZM29.7929 17.7071L32.2929 20.2071L33.7071 18.7929L31.2071 16.2929L29.7929 17.7071ZM30.2071 18.7071L31.2071 17.7071L29.7929 16.2929L28.7929 17.2929L30.2071 18.7071ZM28.7929 18.7071L30.2929 20.2071L31.7071 18.7929L30.2071 17.2929L28.7929 18.7071ZM24.7071 24.2071L29.2071 19.7071L27.7929 18.2929L23.2929 22.7929L24.7071 24.2071ZM29.2071 19.7071L30.2071 18.7071L28.7929 17.2929L27.7929 18.2929L29.2071 19.7071ZM27.7929 19.7071L29.7929 21.7071L31.2071 20.2929L29.2071 18.2929L27.7929 19.7071Z" fill="#1D4ED8"/>
</g>
<defs>
<filter id="filter0_d_250_54" x="0" y="0.5" width="52" height="52" filterUnits="userSpaceOnUse" color-interpolation-filters="sRGB">
<feFlood flood-opacity="0" result="BackgroundImageFix"/>
<feColorMatrix in="SourceAlpha" type="matrix" values="0 0 0 0 0 0 0 0 0 0 0 0 0 0 0 0 0 0 127 0" result="hardAlpha"/>
<feOffset dy="4"/>
<feGaussianBlur stdDeviation="2"/>
<feComposite in2="hardAlpha" operator="out"/>
<feColorMatrix type="matrix" values="0 0 0 0 0 0 0 0 0 0 0 0 0 0 0 0 0 0 0.25 0"/>
<feBlend mode="normal" in2="BackgroundImageFix" result="effect1_dropShadow_250_54"/>
<feBlend mode="normal" in="SourceGraphic" in2="effect1_dropShadow_250_54" result="shape"/>
</filter>
</defs>
</svg>
