<svg width="459" height="306" viewBox="0 0 459 306" fill="none" xmlns="http://www.w3.org/2000/svg">
<g filter="url(#filter0_d_92_5)">
<path fill-rule="evenodd" clip-rule="evenodd" d="M0 263.233C0.166 263.3 0.333 263.367 0.5 263.434C16.142 269.702 33.974 275.788 54.258 281.646C57.767 282.659 61.291 283.619 64.826 284.526C282.047 340.256 545.319 197.332 423.233 121.563C396.499 103.423 379.273 86.849 369.525 71.495C352.405 44.53 358.35 21.325 376.363 0H0.5H0V263.233Z" fill="white"/>
</g>
<rect width="7.36619" height="23.5625" transform="matrix(-0.640715 0.767779 0.767779 0.640715 139.009 148.349)" fill="#0F172A"/>
<rect width="12.5168" height="55.3595" rx="6.25839" transform="matrix(-0.640715 0.767779 0.767779 0.640715 148.614 152.984)" fill="#0F172A"/>
<path d="M71.5165 138.018C70.6582 138.198 69.8127 137.649 69.6677 136.784C68.8345 131.816 68.9783 126.728 70.0968 121.805C71.3327 116.366 73.7294 111.258 77.1228 106.832C80.5163 102.405 84.8263 98.7638 89.7578 96.1576C94.6893 93.5515 100.126 92.0419 105.695 91.7322C111.264 91.4224 116.834 92.3199 122.024 94.3631C127.214 96.4063 131.902 99.547 135.765 103.57C139.628 107.593 142.577 112.404 144.408 117.672C146.065 122.44 146.773 127.481 146.496 132.511C146.447 133.387 145.668 134.027 144.795 133.943C143.922 133.858 143.286 133.083 143.331 132.207C143.566 127.632 142.915 123.051 141.408 118.715C139.727 113.879 137.02 109.463 133.474 105.77C129.928 102.077 125.625 99.1941 120.861 97.3185C116.097 95.443 110.983 94.6191 105.871 94.9035C100.759 95.1878 95.7686 96.5735 91.2418 98.9658C86.715 101.358 82.7586 104.7 79.6436 108.764C76.5286 112.827 74.3285 117.516 73.194 122.509C72.177 126.985 72.0379 131.611 72.7788 136.13C72.9207 136.996 72.3748 137.838 71.5165 138.018Z" fill="#1D4ED8"/>
<path d="M87.373 113.362C86.3309 112.631 86.0717 111.185 86.8903 110.211C90.059 106.437 94.2236 103.603 98.9309 102.048C104.37 100.25 110.244 100.253 115.681 102.057C121.118 103.861 125.829 107.37 129.114 112.062C132.4 116.755 134.085 122.382 133.92 128.108C133.756 133.834 131.749 139.355 128.199 143.851C124.649 148.347 119.744 151.578 114.212 153.066C108.68 154.555 102.816 154.22 97.4891 152.112C92.8792 150.288 88.8845 147.219 85.9383 143.27C85.1771 142.249 85.5191 140.821 86.6015 140.151C87.6839 139.481 89.0956 139.824 89.8751 140.831C92.2863 143.944 95.4979 146.366 99.1855 147.825C103.59 149.568 108.44 149.845 113.014 148.615C117.589 147.384 121.645 144.711 124.581 140.994C127.517 137.276 129.176 132.711 129.312 127.975C129.448 123.24 128.055 118.587 125.338 114.706C122.621 110.826 118.725 107.924 114.229 106.433C109.733 104.941 104.876 104.938 100.378 106.425C96.6123 107.67 93.2667 109.903 90.6803 112.872C89.8441 113.832 88.4151 114.093 87.373 113.362Z" fill="#1D4ED8"/>
<path fill-rule="evenodd" clip-rule="evenodd" d="M133.486 75.8981C130.003 76.9073 113.052 89.9234 107.442 111.803C106.398 111.571 105.359 111.329 104.316 111.087C93.5847 108.595 82.4525 106.009 62 112.657C88.9285 107.046 116.418 127.804 97.9047 163.148L103.515 164.27H108.564L116.418 149.122C117.54 152.301 119.784 159.445 119.784 162.587C119.784 165.728 127.264 159.781 131.004 156.415C131.729 150.116 130.139 144.464 128.185 137.517C126.205 130.483 123.853 122.121 123.15 110.413C121.754 87.1399 129.372 79.2641 133.486 75.8981ZM99.4392 107.198C104.741 107.198 109.039 103.007 109.039 97.8382C109.039 92.6689 104.741 88.4784 99.4392 88.4784C94.1373 88.4784 89.8394 92.6689 89.8394 97.8382C89.8394 103.007 94.1373 107.198 99.4392 107.198Z" fill="#0F172A"/>
<path d="M144.775 129.064C147.755 129.064 150.203 131.488 149.858 134.447C148.719 144.227 144.499 153.389 137.792 160.429C129.867 168.747 119.118 173.421 107.91 173.421C96.7013 173.421 85.9522 168.747 78.0268 160.429C71.32 153.389 67.1002 144.227 65.9612 134.447C65.6165 131.488 68.0644 129.064 71.0439 129.064C74.0235 129.064 76.3956 131.494 76.858 134.437C77.9211 141.206 80.9753 147.507 85.6564 152.421C91.5583 158.615 99.563 162.096 107.91 162.096C116.256 162.096 124.261 158.615 130.163 152.421C134.844 147.507 137.898 141.206 138.961 134.437C139.423 131.494 141.796 129.064 144.775 129.064Z" fill="#1D4ED8"/>
<rect width="9.24626" height="9.24626" rx="4.62313" transform="matrix(1 0 0 -1 80.4924 138.64)" fill="#D9D9D9"/>
<rect width="2.64116" height="2.64116" rx="1.32058" transform="matrix(1 0 0 -1 86.4368 128.734)" fill="#D9D9D9"/>
<path d="M198.188 122.043V150.481H194.418V122.043H198.188ZM210.102 134.836V137.922H197.368V134.836H210.102ZM212.036 122.043V125.129H197.368V122.043H212.036ZM226.128 122.043H235.542C237.677 122.043 239.481 122.369 240.952 123.02C242.436 123.671 243.563 124.635 244.331 125.911C245.112 127.174 245.503 128.73 245.503 130.579C245.503 131.881 245.236 133.072 244.702 134.153C244.181 135.221 243.426 136.132 242.436 136.887C241.46 137.629 240.288 138.183 238.921 138.547L237.866 138.958H229.018L228.979 135.891H235.659C237.013 135.891 238.14 135.657 239.038 135.188C239.936 134.706 240.614 134.062 241.069 133.254C241.525 132.447 241.753 131.555 241.753 130.579C241.753 129.485 241.538 128.528 241.108 127.708C240.679 126.887 240.002 126.256 239.077 125.813C238.166 125.357 236.987 125.129 235.542 125.129H229.897V150.481H226.128V122.043ZM242.749 150.481L235.835 137.59L239.761 137.571L246.772 150.247V150.481H242.749ZM264.419 122.043V150.481H260.65V122.043H264.419ZM302.75 122.043V150.481H298.961L284.644 128.547V150.481H280.875V122.043H284.644L299.019 144.036V122.043H302.75Z" fill="#0F172A"/>
<path d="M328.951 122.043V150.481H325.24V122.043H328.951ZM338.092 122.043V125.129H316.119V122.043H338.092Z" fill="#1D4ED8"/>
<g filter="url(#filter1_d_92_5)">
<circle cx="421" cy="42.8981" r="34" fill="white"/>
</g>
<defs>
<filter id="filter0_d_92_5" x="-4" y="0" width="462.236" height="305.114" filterUnits="userSpaceOnUse" color-interpolation-filters="sRGB">
<feFlood flood-opacity="0" result="BackgroundImageFix"/>
<feColorMatrix in="SourceAlpha" type="matrix" values="0 0 0 0 0 0 0 0 0 0 0 0 0 0 0 0 0 0 127 0" result="hardAlpha"/>
<feOffset dy="4"/>
<feGaussianBlur stdDeviation="2"/>
<feComposite in2="hardAlpha" operator="out"/>
<feColorMatrix type="matrix" values="0 0 0 0 0 0 0 0 0 0 0 0 0 0 0 0 0 0 0.25 0"/>
<feBlend mode="normal" in2="BackgroundImageFix" result="effect1_dropShadow_92_5"/>
<feBlend mode="normal" in="SourceGraphic" in2="effect1_dropShadow_92_5" result="shape"/>
</filter>
<filter id="filter1_d_92_5" x="383" y="8.89807" width="76" height="76" filterUnits="userSpaceOnUse" color-interpolation-filters="sRGB">
<feFlood flood-opacity="0" result="BackgroundImageFix"/>
<feColorMatrix in="SourceAlpha" type="matrix" values="0 0 0 0 0 0 0 0 0 0 0 0 0 0 0 0 0 0 127 0" result="hardAlpha"/>
<feOffset dy="4"/>
<feGaussianBlur stdDeviation="2"/>
<feComposite in2="hardAlpha" operator="out"/>
<feColorMatrix type="matrix" values="0 0 0 0 0 0 0 0 0 0 0 0 0 0 0 0 0 0 0.25 0"/>
<feBlend mode="normal" in2="BackgroundImageFix" result="effect1_dropShadow_92_5"/>
<feBlend mode="normal" in="SourceGraphic" in2="effect1_dropShadow_92_5" result="shape"/>
</filter>
</defs>
</svg>
