<svg width="242" height="118" viewBox="0 0 242 118" fill="none" xmlns="http://www.w3.org/2000/svg">
<path d="M45.7282 92.3565C47.6415 92.9243 49.2881 93.4182 51.2299 93.9973C50.611 94.7638 50.1454 95.343 49.6969 95.8937C51.3604 96.6829 51.4002 96.7794 50.3952 98.1023C50.7586 98.3237 51.1163 98.5452 51.6954 98.8972C51.0709 99.1981 50.6507 99.4139 50.2192 99.6012C49.8104 99.7772 49.3903 99.9135 48.8112 100.124C49.3732 100.515 49.7991 100.811 50.3214 101.174C49.9978 101.725 49.4925 102.349 50.8097 102.679C49.9183 103.127 49.3562 103.405 48.6238 103.774C49.3449 104.024 49.941 104.229 50.7927 104.524C48.2207 105.903 45.6373 105.852 42.7076 105.949C44.7232 106.789 46.4152 107.493 48.1071 108.197C48.0674 108.402 48.0276 108.6 47.9879 108.805C46.6593 108.986 45.3364 109.174 43.9 109.367C43.775 111.996 43.6501 114.693 43.5195 117.389C43.3606 117.384 43.2016 117.372 43.0426 117.367V109.282C41.6005 109.14 40.2378 109.021 38.8866 108.873C38.3415 108.81 37.751 108.799 37.2854 108.561C36.6779 108.254 36.1669 107.743 35.6162 107.317C35.9966 106.857 36.3827 106.397 36.7574 105.949C36.4395 105.858 35.9796 105.733 35.5197 105.603C35.5254 105.483 35.5367 105.364 35.5424 105.245C37.8475 105.358 40.1584 105.489 42.4635 105.568C44.7857 105.648 47.0965 105.568 49.3051 104.757C49.3051 104.626 49.3051 104.49 49.2994 104.359C48.391 104.359 47.4428 104.194 46.5798 104.388C42.4465 105.313 38.3472 105.233 33.9867 104.206C34.4012 103.984 34.5885 103.842 34.7986 103.78C35.0484 103.701 35.321 103.695 35.8887 103.61C34.8895 103.138 34.1514 102.792 33.4189 102.44C33.4303 102.315 33.4416 102.19 33.453 102.06C35.355 101.719 37.2514 101.378 39.0796 101.055C37.6431 100.777 36.1102 100.481 34.5772 100.18C34.5772 100.055 34.5772 99.9305 34.5772 99.8056C35.5254 99.6012 36.4735 99.3968 37.6261 99.147C36.0364 98.9085 34.6453 98.7041 33.2543 98.4998C33.2259 98.3976 33.1975 98.2953 33.1691 98.1932C33.7937 97.9149 34.4125 97.6311 35.2244 97.2677C34.7759 96.5239 34.3444 95.8028 33.8788 95.0364C34.2365 94.9285 34.7305 94.7809 35.4118 94.5765C34.5204 94.3323 33.8164 94.1393 32.8341 93.8724C34.3841 92.6858 35.9512 92.3735 37.4898 92.2884C39.7552 92.1635 42.0433 92.3111 44.3144 92.3167C44.6948 92.3167 45.0809 92.1975 45.4613 92.1294C45.4386 92.0102 45.4102 91.8852 45.3875 91.766C45.2626 91.7319 45.1377 91.6468 45.0185 91.6638C39.3862 92.4133 35.3493 89.9037 32.573 85.2707C28.9847 79.2751 25.8165 73.0637 23.2956 66.5173C21.6604 62.2647 19.4348 58.2449 17.7144 54.0264C16.136 50.1542 14.6598 46.2082 13.5413 42.1827C12.5648 38.6683 13.3994 35.2503 15.2447 32.0481C16.3745 30.0836 17.0388 27.8466 18.2141 25.9105C20.9394 21.4251 24.8627 18.2456 29.8193 16.565C33.1294 15.4408 36.536 14.345 39.9823 13.9135C48.3229 12.8632 55.5108 15.5828 61.251 21.7317C66.1962 27.029 69.8073 33.1098 71.0563 40.3716C71.6695 43.9599 71.0847 47.4573 70.023 50.9037C68.5468 55.6843 65.8158 59.7779 63.1303 63.9226C61.075 67.0964 58.9913 70.2816 57.2823 73.6428C56.0105 76.141 55.4427 78.9912 54.3355 81.5859C52.6947 85.4411 50.0943 88.5695 46.6536 90.9995C46.2562 91.2834 46.0631 91.8569 45.7282 92.3622V92.3565ZM46.2959 85.9407C47.9311 85.6 48.7373 84.7484 49.2143 83.2665C50.5258 79.1842 51.7011 75.0168 53.4839 71.139C55.8231 66.0461 58.6279 61.1689 61.3418 56.2521C64.5951 50.3586 65.3787 44.2551 62.96 37.9358C62.0061 35.449 61.0239 32.7635 59.3149 30.816C54.0857 24.8431 47.1362 22.9183 39.5508 24.4911C30.5347 26.3533 25.3055 32.5534 22.7676 41.1381C21.263 46.2309 22.3418 51.1648 24.0167 56.042C24.6753 57.9554 25.5156 59.7041 26.7136 61.362C28.2806 63.5365 29.8477 65.8019 30.8924 68.2547C32.6638 72.3994 34.0321 76.7201 35.5651 80.967C36.3032 83.0167 37.2003 84.9301 39.795 85.8158C40.1584 83.3119 40.6069 80.9557 40.8283 78.5711C41.3961 72.5016 41.1917 66.523 38.5232 60.8567C38.1257 60.0107 37.6886 59.6814 36.7461 59.9198C34.7759 60.4252 33.0101 59.7382 31.4772 58.6083C30.9151 58.1938 30.3132 57.1321 30.4779 56.5984C30.6993 55.883 31.551 55.0938 32.3004 54.861C33.9753 54.3387 35.4345 55.0314 36.5473 56.3713C37.1265 57.064 37.6545 57.8021 38.3812 58.7559C39.3919 57.8021 40.3798 56.9447 41.2541 55.9966C41.4529 55.7808 41.3961 55.1847 41.2598 54.8383C40.8113 53.6971 40.0959 52.6354 39.8177 51.4601C39.3805 49.6376 39.2215 47.7299 40.1413 45.9754C40.7886 44.7434 41.8673 44.6412 42.5827 45.8108C43.1619 46.759 43.5934 47.8604 43.8205 48.9506C44.2747 51.1592 43.8375 53.294 42.6338 55.4913C43.6899 56.0647 44.6551 56.6325 45.66 57.1207C46.6252 57.592 47.3463 57.4557 48.1071 56.4905C49.7764 54.3784 52.8026 53.3962 54.8295 54.2478C55.4881 54.526 56.2773 55.2471 56.3682 55.8603C56.4363 56.3202 55.5903 57.2229 54.9771 57.4273C53.5236 57.9213 51.9566 58.0689 50.4577 58.4493C49.4073 58.7162 48.0617 57.8361 47.3179 59.0568C46.7331 60.0164 46.4265 61.1462 46.0007 62.208C45.9326 62.3783 45.8985 62.56 45.8474 62.736C44.3712 67.562 44.4848 72.4732 45.0752 77.4015C45.4159 80.2403 45.8815 83.0621 46.2959 85.935V85.9407ZM58.6676 28.9481C56.5612 25.1383 53.5974 22.0553 49.3165 21.3002C44.1554 20.3861 38.8355 20.4883 33.6631 21.6068C25.8449 23.2988 21.2971 28.0567 19.9515 35.7442C18.7819 42.4042 20.0196 48.82 22.1033 55.1279C22.3077 55.7411 22.8073 56.2521 23.1707 56.8085C20.4454 47.9115 20.8485 45.1862 22.1771 40.3205C23.6931 34.7677 26.9861 30.3618 31.6589 26.9552C38.3983 22.044 49.572 21.357 58.6676 28.9424V28.9481ZM68.9669 51.5509C69.2679 51.0286 69.4041 50.8639 69.4609 50.6766C70.9371 46.1231 71.1869 41.5298 69.688 36.9366C68.2005 32.3774 65.884 28.2327 62.9202 24.4797C59.1048 19.6423 54.381 16.0938 48.2207 14.8447C39.9256 13.1698 32.3742 15.2875 25.3623 19.6821C22.1033 21.7204 19.6108 24.5195 18.004 27.7273C19.7414 26.4839 21.7399 25.2348 23.5398 23.7473C28.4623 19.6707 34.1059 17.6381 40.4366 17.0135C49.958 16.0767 57.4753 19.7275 63.1757 27.0176C65.4127 29.8735 66.7186 33.4732 68.3481 36.7776C68.842 37.7825 69.0578 38.9465 69.3019 40.0536C70.1309 43.7725 69.9265 47.48 68.9613 51.5509H68.9669ZM38.7276 59.477C42.9745 68.0957 42.4749 77.0097 40.164 86.2757H45.819C43.8943 76.7712 42.3556 67.4655 46.6252 58.472C45.0923 57.7112 43.6728 57.0072 42.2591 56.3032C41.1633 57.2911 39.988 58.3471 38.7276 59.477ZM52.9899 22.0213C58.2077 24.9055 60.1325 30.3561 63.0167 34.9721C66.0202 39.7754 66.7186 45.2828 66.5199 50.9037C66.7413 49.5524 67.0081 48.2011 66.9854 46.8498C66.9457 44.5674 66.7016 42.2963 66.571 40.0139C66.2644 34.745 65.0891 29.8849 61.1942 25.9162C58.8777 23.5599 56.0389 22.714 52.9956 22.0156L52.9899 22.0213ZM64.7087 40.0706C64.6292 40.0877 64.5497 40.1047 64.4645 40.1217C64.4362 40.2069 64.3794 40.2864 64.3794 40.3716C64.3794 40.5078 64.3907 40.6441 64.4248 40.7747C65.9067 46.6454 64.6349 52.0108 61.7336 57.2059C58.872 62.3329 56.2205 67.5847 53.5804 72.8309C52.7969 74.3923 52.3654 76.1353 51.7692 77.7932C52.3938 77.0551 52.7344 76.2035 53.2057 75.4313C56.2546 70.4576 59.4114 65.5408 62.3808 60.5217C65.1856 55.7865 66.1451 50.5687 65.6625 45.1181C65.5149 43.4205 65.038 41.7512 64.7087 40.0706ZM58.1055 22.8616C50.5429 15.1626 35.1279 16.6956 27.5709 22.1235C37.8135 17.5359 47.9084 19.3755 58.1055 22.8616ZM32.4708 82.4205C31.9087 77.4582 21.6377 56.1499 19.6505 53.7028C19.7982 54.1797 19.872 54.4295 19.9515 54.6793C22.3361 62.0319 25.4531 69.0893 28.6326 76.1183C29.6376 78.344 30.5971 80.6037 32.4708 82.4205ZM47.7097 86.5425C41.4642 88.4219 37.5012 86.8378 34.9292 80.9614C33.5268 77.7478 32.5332 74.3582 31.3352 71.0595C30.2508 68.073 28.6099 65.4045 26.6682 62.9006C27.2927 64.814 28.1217 66.6422 28.7689 68.5329C30.2224 72.8025 31.6248 77.0835 32.959 81.3929C33.5211 83.204 34.2365 84.879 36.0193 85.7136C37.4444 86.3836 39.0001 86.7583 40.465 87.3431C42.4521 88.138 44.4223 87.7632 46.3811 87.3147C46.858 87.2068 47.2725 86.8094 47.7154 86.5482L47.7097 86.5425ZM61.7393 64.1213C69.7334 53.0385 71.3686 43.1707 66.6505 34.5633C66.9287 38.2708 67.1728 41.9783 67.4964 45.6802C67.7406 48.4509 67.5589 51.1819 66.4688 53.7425C65.0096 57.1718 63.3858 60.5274 61.7393 64.127V64.1213ZM26.8158 23.3953C23.6874 24.2526 21.2914 26.325 20.0139 29.6805C17.8223 35.4604 17.1807 41.4844 18.1516 47.5879C18.4355 49.3934 19.3723 51.0967 20.0082 52.8454C20.1161 52.8 20.224 52.7546 20.3319 52.7092C19.8663 50.0691 19.2247 47.4403 18.9635 44.7775C18.1573 36.5618 19.1963 28.9424 26.8158 23.3896V23.3953ZM16.9934 46.7646C16.8174 39.9173 17.0502 33.1382 20.4284 26.8473C18.7137 28.4938 16.9082 30.1177 16.2666 32.4682C14.9551 37.2772 15.591 42.0408 16.9934 46.759V46.7646ZM42.1228 54.7134C43.5252 51.8746 43.5877 49.3253 42.2932 46.776C42.1115 46.4183 41.6743 46.1969 41.3563 45.913C41.0952 46.248 40.6921 46.5489 40.5842 46.9293C39.8404 49.6319 40.4593 52.1017 42.1228 54.7134ZM34.7986 102.406C39.1761 103.615 43.5423 103.542 47.88 102.151C43.5082 101.026 39.1591 101.446 34.7986 102.406ZM37.4898 58.79C36.6325 57.8361 35.9398 56.7801 34.986 56.1158C34.3217 55.6559 33.2656 55.5196 32.4253 55.6105C31.2103 55.7467 30.8469 56.8482 31.568 57.7055C32.6752 59.0171 35.5537 59.6303 37.4898 58.79ZM55.772 56.0022C54.5343 53.7085 49.3903 55.0825 48.4251 57.6658C51.0198 57.5125 53.6088 57.7964 55.772 56.0022ZM19.2645 55.4118C16.5846 48.8881 14.0694 42.3304 14.7904 35.0629C12.4853 42.6767 16.6016 48.8824 19.2645 55.4118ZM34.157 93.5885C37.558 94.6219 43.423 94.0882 44.4223 92.7312C40.9078 92.3962 37.4671 92.1918 34.157 93.5885ZM42.8155 108.913C42.9518 108.748 43.0937 108.583 43.23 108.424C42.9575 107.874 42.7531 106.897 42.3954 106.835C40.7545 106.556 39.0682 106.488 37.3933 106.449C37.0583 106.443 36.712 106.903 36.377 107.153C36.695 107.442 36.9788 107.913 37.3422 107.987C39.1534 108.356 40.9873 108.617 42.8155 108.913ZM34.4296 98.0399C39.0739 98.6871 43.6842 99.3457 48.2831 97.9774C44.0419 97.6822 39.8007 97.6765 35.5594 97.6992C35.1847 97.6992 34.8043 97.9206 34.4296 98.0399ZM35.0087 95.1897C35.9001 95.7631 47.7948 95.042 48.6862 94.4743C43.9908 93.5602 39.5168 94.6276 35.0087 95.1897ZM35.673 87.451C37.5409 90.2785 40.4877 91.1982 44.3712 89.8924C42.9518 89.5347 41.4642 89.529 40.0675 89.1656C38.5572 88.7682 37.1378 88.0358 35.673 87.451ZM50.7359 86.0543C53.3817 82.7896 54.6421 78.9117 55.6868 74.9373C54.0346 78.6449 52.3824 82.3467 50.7359 86.0543ZM36.0023 103.871C36.0136 103.99 36.0193 104.115 36.0307 104.234C39.3408 104.711 42.6338 104.808 45.8871 103.871H36.0023ZM46.8126 95.871C43.0937 96.1038 39.3805 96.3422 35.7127 96.5693C36.4792 97.3245 44.8424 96.9725 46.8126 95.871ZM36.3884 99.7886C36.3884 99.9419 36.377 100.095 36.3713 100.248H45.626C45.626 100.095 45.626 99.9419 45.626 99.7886H36.3884ZM50.0886 86.0997C48.215 87.2579 46.5344 88.3026 44.8538 89.3473C46.0518 90.4885 48.7714 88.8761 50.0886 86.0997ZM43.0597 99.1754C48.5329 99.9192 49.061 99.8965 50.3896 98.5395C48.039 98.7439 45.6827 98.9483 43.0597 99.1754ZM45.8588 97.0576C47.3236 96.8305 48.8112 98.3692 50.4634 97.1371C48.7657 95.6212 47.3009 96.5296 45.8588 97.0576ZM43.6047 106.795C43.7183 107.692 43.7807 108.197 43.8545 108.799C44.956 108.737 45.9042 108.686 46.8524 108.634C46.8751 108.498 46.8978 108.362 46.9262 108.22C45.9269 107.788 44.9276 107.357 43.6047 106.789V106.795ZM44.3031 100.89C45.995 101.123 47.6926 101.361 49.6117 101.622C47.8857 99.5899 46.0064 100.85 44.3031 100.89ZM25.6235 63.5763C25.737 63.5365 25.8506 63.5025 25.9641 63.4627C25.2431 61.7992 24.522 60.1413 23.8009 58.4777C23.6533 58.5402 23.5114 58.6083 23.3637 58.6708C24.1189 60.3059 24.874 61.9411 25.6291 63.5706L25.6235 63.5763ZM44.3087 93.7702H48.4024C46.4322 92.7823 45.5578 92.7369 44.3087 93.7702ZM52.3086 79.0366C52.3767 79.0991 52.4392 79.1672 52.5073 79.2297C53.3306 77.5888 54.1539 75.9536 54.9715 74.3128C54.8749 74.2674 54.7784 74.2219 54.6819 74.1708C53.8927 75.789 53.0978 77.4128 52.3086 79.0309V79.0366ZM37.2911 87.309C37.2514 87.4339 37.2116 87.5588 37.1719 87.6838C38.7957 88.138 40.4138 88.5865 42.0377 89.0407C42.0774 88.8988 42.1172 88.7625 42.1626 88.6206C40.5388 88.1834 38.9149 87.7462 37.2968 87.309H37.2911ZM37.9157 95.7631C37.9213 95.8937 37.9327 96.0186 37.9384 96.1492C39.6303 96.03 41.3166 95.9107 43.0086 95.7972C43.0029 95.6836 42.9915 95.5701 42.9858 95.4622C41.2939 95.5644 39.6076 95.6666 37.9157 95.7688V95.7631ZM49.5663 103.065C49.5379 102.911 49.5095 102.752 49.4811 102.599C48.3058 102.065 47.4144 103.104 46.3641 103.229C46.3868 103.366 46.4152 103.507 46.4379 103.644C47.4826 103.451 48.5216 103.258 49.5663 103.065Z" fill="#6F6F6F"/>
<path d="M73.9462 68.158C71.925 66.6704 70.0684 65.3078 68.1152 63.8713C69.5914 63.9451 73.123 66.5285 73.9462 68.158Z" fill="#6F6F6F"/>
<path d="M5.64375 19.801C7.51739 21.1637 9.39671 22.532 11.2703 23.8946C11.1738 24.0309 11.0773 24.1728 10.9751 24.3091C9.09579 22.9521 7.21647 21.5952 5.33716 20.2382C5.43936 20.0906 5.54156 19.9486 5.64375 19.801Z" fill="#6F6F6F"/>
<path d="M14.9325 9.80286C16.2066 11.7378 17.4841 13.68 18.7582 15.6149C18.6199 15.7085 18.4796 15.8074 18.336 15.8989C17.0545 13.9673 15.7731 12.0357 14.4916 10.1042C14.6393 10.002 14.7849 9.90506 14.9325 9.80286Z" fill="#6F6F6F"/>
<path d="M0.652843 30.0154C3.49737 30.8103 6.34757 31.5995 9.19209 32.3943C9.15234 32.5306 9.1126 32.6669 9.07286 32.8088C6.25105 31.9571 3.42923 31.1112 0.607422 30.2595C0.618777 30.18 0.63581 30.0949 0.647166 30.0154H0.652843Z" fill="#6F6F6F"/>
<path d="M74.6218 55.826C76.8134 56.8537 78.9993 57.8814 81.1909 58.909C81.1511 58.9999 81.1057 59.0907 81.066 59.1872C78.8744 58.1596 76.6828 57.1319 74.4912 56.1043L74.6275 55.826H74.6218Z" fill="#6F6F6F"/>
<path d="M85.0461 49.5352C82.4287 49.2286 79.8113 48.9277 77.1938 48.6211L77.2336 48.2804C79.8453 48.6324 82.4514 48.9901 85.0631 49.3421L85.0404 49.5352H85.0461Z" fill="#6F6F6F"/>
<path d="M0 42.6824C2.35056 42.4326 4.7068 42.1771 7.05737 41.9272C7.06872 42.0067 7.0744 42.0862 7.08576 42.1657C4.75223 42.4553 2.4187 42.7448 0.0794876 43.0344C0.0510991 42.9152 0.0283884 42.8016 0 42.6824Z" fill="#6F6F6F"/>
<path d="M47.0737 1.17834C47.21 4.00016 47.3463 6.82197 47.4882 9.64946C47.3349 9.65514 47.1816 9.66081 47.0283 9.66649V1.23512L47.0737 1.17834Z" fill="#6F6F6F"/>
<path d="M29.0011 0.676272C29.583 3.44081 30.1648 6.20535 30.7531 8.9746C30.6026 9.0045 30.4522 9.03441 30.3017 9.06431L28.9653 0.739531L29.0011 0.676272Z" fill="#6F6F6F"/>
<path d="M80.118 39.3609C82.0654 39.1168 84.0129 38.8726 85.9603 38.6228C85.9717 38.7364 85.9887 38.8442 86.0001 38.9578C84.0299 39.1963 82.0598 39.4347 80.0896 39.6732C80.101 39.571 80.1066 39.4631 80.118 39.3609Z" fill="#6F6F6F"/>
<path d="M82.7864 24.684C80.873 25.4221 78.9597 26.1602 77.0463 26.8983C77.0122 26.8132 76.9782 26.728 76.9441 26.6428C78.8518 25.8934 80.7595 25.1382 82.6672 24.3888C82.7069 24.491 82.7467 24.5875 82.7808 24.6897L82.7864 24.684Z" fill="#6F6F6F"/>
<path d="M64.1524 5.52178C63.3007 6.79358 62.4434 8.06538 61.5917 9.33719C61.5122 9.28609 61.4328 9.23499 61.3533 9.17821C62.2049 7.88938 63.0566 6.60622 63.9082 5.31738C63.9934 5.38552 64.0729 5.45365 64.1581 5.52178H64.1524Z" fill="#6F6F6F"/>
<path d="M118.973 64.7578V67.5H109.891V64.7578H118.973ZM111.039 50.4375V67.5H107.523V50.4375H111.039ZM117.789 57.3867V60.0586H109.891V57.3867H117.789ZM118.961 50.4375V53.1914H109.891V50.4375H118.961ZM125.868 57.4453V67.5H122.481V54.8203H125.657L125.868 57.4453ZM125.399 60.7148H124.461C124.461 59.832 124.567 59.0195 124.778 58.2773C124.996 57.5273 125.313 56.8789 125.727 56.332C126.149 55.7773 126.668 55.3477 127.285 55.043C127.903 54.7383 128.618 54.5859 129.43 54.5859C129.993 54.5859 130.508 54.6719 130.977 54.8438C131.446 55.0078 131.848 55.2695 132.184 55.6289C132.528 55.9805 132.793 56.4414 132.981 57.0117C133.168 57.5742 133.262 58.25 133.262 59.0391V67.5H129.887V59.4141C129.887 58.8359 129.809 58.3906 129.653 58.0781C129.496 57.7656 129.274 57.5469 128.985 57.4219C128.703 57.2969 128.364 57.2344 127.965 57.2344C127.528 57.2344 127.145 57.3242 126.817 57.5039C126.496 57.6836 126.231 57.9336 126.02 58.2539C125.809 58.5664 125.653 58.9336 125.551 59.3555C125.45 59.7773 125.399 60.2305 125.399 60.7148ZM132.946 60.3281L131.739 60.4805C131.739 59.6523 131.84 58.8828 132.043 58.1719C132.254 57.4609 132.563 56.8359 132.969 56.2969C133.383 55.7578 133.895 55.3398 134.504 55.043C135.114 54.7383 135.817 54.5859 136.614 54.5859C137.223 54.5859 137.778 54.6758 138.278 54.8555C138.778 55.0273 139.203 55.3047 139.555 55.6875C139.914 56.0625 140.188 56.5547 140.375 57.1641C140.571 57.7734 140.668 58.5195 140.668 59.4023V67.5H137.282V59.4023C137.282 58.8164 137.203 58.3711 137.047 58.0664C136.899 57.7539 136.68 57.5391 136.391 57.4219C136.11 57.2969 135.774 57.2344 135.383 57.2344C134.977 57.2344 134.621 57.3164 134.317 57.4805C134.012 57.6367 133.758 57.8555 133.555 58.1367C133.352 58.418 133.2 58.7461 133.098 59.1211C132.996 59.4883 132.946 59.8906 132.946 60.3281ZM148.337 57.2578V72.375H144.962V54.8203H148.09L148.337 57.2578ZM156.364 61.0195V61.2656C156.364 62.1875 156.255 63.043 156.036 63.832C155.825 64.6211 155.512 65.3086 155.098 65.8945C154.684 66.4727 154.169 66.9258 153.551 67.2539C152.942 67.5742 152.239 67.7344 151.442 67.7344C150.669 67.7344 149.997 67.5781 149.426 67.2656C148.856 66.9531 148.376 66.5156 147.985 65.9531C147.602 65.3828 147.294 64.7227 147.059 63.9727C146.825 63.2227 146.645 62.418 146.52 61.5586V60.9141C146.645 59.9922 146.825 59.1484 147.059 58.3828C147.294 57.6094 147.602 56.9414 147.985 56.3789C148.376 55.8086 148.852 55.3672 149.415 55.0547C149.985 54.7422 150.653 54.5859 151.419 54.5859C152.223 54.5859 152.93 54.7383 153.54 55.043C154.157 55.3477 154.673 55.7852 155.087 56.3555C155.508 56.9258 155.825 57.6055 156.036 58.3945C156.255 59.1836 156.364 60.0586 156.364 61.0195ZM152.977 61.2656V61.0195C152.977 60.4805 152.93 59.9844 152.837 59.5312C152.751 59.0703 152.61 58.668 152.415 58.3242C152.227 57.9805 151.977 57.7148 151.665 57.5273C151.36 57.332 150.989 57.2344 150.551 57.2344C150.09 57.2344 149.696 57.3086 149.368 57.457C149.048 57.6055 148.786 57.8203 148.583 58.1016C148.38 58.3828 148.227 58.7188 148.126 59.1094C148.024 59.5 147.962 59.9414 147.938 60.4336V62.0625C147.977 62.6406 148.087 63.1602 148.266 63.6211C148.446 64.0742 148.723 64.4336 149.098 64.6992C149.473 64.9648 149.965 65.0977 150.575 65.0977C151.02 65.0977 151.395 65 151.7 64.8047C152.005 64.6016 152.251 64.3242 152.438 63.9727C152.633 63.6211 152.77 63.2148 152.848 62.7539C152.934 62.293 152.977 61.7969 152.977 61.2656ZM159.603 61.2891V61.043C159.603 60.1133 159.735 59.2578 160.001 58.4766C160.267 57.6875 160.653 57.0039 161.161 56.4258C161.669 55.8477 162.294 55.3984 163.036 55.0781C163.778 54.75 164.63 54.5859 165.591 54.5859C166.552 54.5859 167.407 54.75 168.157 55.0781C168.907 55.3984 169.536 55.8477 170.044 56.4258C170.56 57.0039 170.95 57.6875 171.216 58.4766C171.481 59.2578 171.614 60.1133 171.614 61.043V61.2891C171.614 62.2109 171.481 63.0664 171.216 63.8555C170.95 64.6367 170.56 65.3203 170.044 65.9062C169.536 66.4844 168.911 66.9336 168.169 67.2539C167.427 67.5742 166.575 67.7344 165.614 67.7344C164.653 67.7344 163.798 67.5742 163.048 67.2539C162.306 66.9336 161.677 66.4844 161.161 65.9062C160.653 65.3203 160.267 64.6367 160.001 63.8555C159.735 63.0664 159.603 62.2109 159.603 61.2891ZM162.978 61.043V61.2891C162.978 61.8203 163.024 62.3164 163.118 62.7773C163.212 63.2383 163.36 63.6445 163.563 63.9961C163.774 64.3398 164.048 64.6094 164.384 64.8047C164.72 65 165.13 65.0977 165.614 65.0977C166.083 65.0977 166.485 65 166.821 64.8047C167.157 64.6094 167.427 64.3398 167.63 63.9961C167.833 63.6445 167.981 63.2383 168.075 62.7773C168.177 62.3164 168.228 61.8203 168.228 61.2891V61.043C168.228 60.5273 168.177 60.043 168.075 59.5898C167.981 59.1289 167.829 58.7227 167.618 58.3711C167.415 58.0117 167.145 57.7305 166.81 57.5273C166.474 57.3242 166.067 57.2227 165.591 57.2227C165.114 57.2227 164.708 57.3242 164.372 57.5273C164.044 57.7305 163.774 58.0117 163.563 58.3711C163.36 58.7227 163.212 59.1289 163.118 59.5898C163.024 60.043 162.978 60.5273 162.978 61.043ZM178.99 64.2188L181.626 54.8203H183.771L183.079 58.5117L180.443 67.5H178.65L178.99 64.2188ZM177.654 54.8203L179.54 64.207L179.716 67.5H177.607L174.396 54.8203H177.654ZM186.185 64.0547L188.025 54.8203H191.294L188.083 67.5H185.986L186.185 64.0547ZM184.064 54.8203L186.689 64.1484L187.052 67.5H185.247L182.611 58.5234L181.943 54.8203H184.064ZM200.509 67.7344C199.525 67.7344 198.642 67.5781 197.861 67.2656C197.08 66.9453 196.416 66.5039 195.869 65.9414C195.33 65.3789 194.916 64.7266 194.627 63.9844C194.338 63.2344 194.193 62.4375 194.193 61.5938V61.125C194.193 60.1641 194.33 59.2852 194.603 58.4883C194.877 57.6914 195.267 57 195.775 56.4141C196.291 55.8281 196.916 55.3789 197.65 55.0664C198.384 54.7461 199.213 54.5859 200.134 54.5859C201.033 54.5859 201.83 54.7344 202.525 55.0312C203.22 55.3281 203.802 55.75 204.271 56.2969C204.748 56.8438 205.107 57.5 205.349 58.2656C205.591 59.0234 205.713 59.8672 205.713 60.7969V62.2031H195.634V59.9531H202.396V59.6953C202.396 59.2266 202.31 58.8086 202.138 58.4414C201.974 58.0664 201.724 57.7695 201.388 57.5508C201.052 57.332 200.623 57.2227 200.099 57.2227C199.654 57.2227 199.271 57.3203 198.951 57.5156C198.63 57.7109 198.369 57.9844 198.166 58.3359C197.97 58.6875 197.822 59.1016 197.72 59.5781C197.627 60.0469 197.58 60.5625 197.58 61.125V61.5938C197.58 62.1016 197.65 62.5703 197.791 63C197.939 63.4297 198.146 63.8008 198.412 64.1133C198.685 64.4258 199.013 64.668 199.396 64.8398C199.787 65.0117 200.228 65.0977 200.72 65.0977C201.33 65.0977 201.896 64.9805 202.42 64.7461C202.951 64.5039 203.408 64.1406 203.791 63.6562L205.431 65.4375C205.166 65.8203 204.802 66.1875 204.341 66.5391C203.888 66.8906 203.341 67.1797 202.701 67.4062C202.06 67.625 201.33 67.7344 200.509 67.7344ZM212.689 57.5859V67.5H209.314V54.8203H212.49L212.689 57.5859ZM216.51 54.7383L216.451 57.8672C216.287 57.8438 216.088 57.8242 215.853 57.8086C215.627 57.7852 215.42 57.7734 215.232 57.7734C214.756 57.7734 214.342 57.8359 213.99 57.9609C213.646 58.0781 213.357 58.2539 213.123 58.4883C212.896 58.7227 212.725 59.0078 212.607 59.3438C212.498 59.6797 212.435 60.0625 212.42 60.4922L211.74 60.2812C211.74 59.4609 211.822 58.707 211.986 58.0195C212.15 57.3242 212.389 56.7188 212.701 56.2031C213.021 55.6875 213.412 55.2891 213.873 55.0078C214.334 54.7266 214.861 54.5859 215.455 54.5859C215.643 54.5859 215.834 54.6016 216.029 54.6328C216.225 54.6562 216.385 54.6914 216.51 54.7383ZM237.073 50.4375H240.577V61.7109C240.577 63.0234 240.295 64.1289 239.733 65.0273C239.178 65.9258 238.409 66.6016 237.424 67.0547C236.448 67.5078 235.323 67.7344 234.049 67.7344C232.776 67.7344 231.643 67.5078 230.651 67.0547C229.667 66.6016 228.893 65.9258 228.331 65.0273C227.776 64.1289 227.499 63.0234 227.499 61.7109V50.4375H231.014V61.7109C231.014 62.4766 231.135 63.1016 231.378 63.5859C231.62 64.0703 231.967 64.4258 232.42 64.6523C232.881 64.8789 233.424 64.9922 234.049 64.9922C234.69 64.9922 235.233 64.8789 235.678 64.6523C236.131 64.4258 236.475 64.0703 236.71 63.5859C236.952 63.1016 237.073 62.4766 237.073 61.7109V50.4375Z" fill="#6F6F6F"/>
</svg>
