<svg width="200" height="110" viewBox="0 0 200 110" fill="none" xmlns="http://www.w3.org/2000/svg">
<rect width="6.59982" height="21.1111" transform="matrix(-0.640715 0.767779 0.767779 0.640715 68.9971 65.1858)" fill="#0F172A"/>
<rect width="11.2145" height="49.6" rx="5.60727" transform="matrix(-0.640715 0.767779 0.767779 0.640715 77.6025 69.3381)" fill="#0F172A"/>
<path d="M8.52654 55.9293C7.75751 56.0909 7.00002 55.5989 6.87005 54.8239C6.12356 50.3725 6.25242 45.8134 7.25452 41.4032C8.36182 36.53 10.5092 31.9536 13.5496 27.9874C16.59 24.0213 20.4516 20.759 24.87 18.424C29.2884 16.089 34.1592 14.7365 39.149 14.459C44.1387 14.1815 49.1295 14.9855 53.7796 16.8162C58.4297 18.6468 62.6292 21.4608 66.0906 25.0653C69.5521 28.6699 72.1937 32.9799 73.8346 37.7003C75.3195 41.9722 75.9531 46.4889 75.7049 50.9956C75.6616 51.7802 74.9634 52.3532 74.1812 52.2778C73.399 52.2025 72.8293 51.5072 72.8696 50.7225C73.0803 46.6242 72.4969 42.5192 71.1466 38.6346C69.6404 34.3016 67.2155 30.3452 64.0381 27.0364C60.8606 23.7276 57.0057 21.1445 52.7371 19.4641C48.4686 17.7837 43.8873 17.0456 39.307 17.3003C34.7267 17.555 30.2555 18.7966 26.1996 20.94C22.1438 23.0834 18.599 26.078 15.8081 29.7187C13.0171 33.3595 11.046 37.5603 10.0295 42.0337C9.11828 46.0441 8.99366 50.1885 9.65749 54.2381C9.78462 55.0135 9.29556 55.7676 8.52654 55.9293Z" fill="#6F6F6F"/>
<path d="M22.7331 33.8384C21.7994 33.1831 21.5671 31.8883 22.3006 31.0148C25.1396 27.6336 28.871 25.0951 33.0885 23.701C37.9617 22.0902 43.2245 22.0931 48.0959 23.7094C52.9674 25.3258 57.188 28.4694 60.1318 32.6739C63.0755 36.8784 64.5855 41.9198 64.4378 47.0503C64.29 52.1808 62.4924 57.127 59.3116 61.1551C56.1307 65.1833 51.7362 68.0788 46.7797 69.4121C41.8233 70.7454 36.5692 70.4454 31.7967 68.5568C27.6664 66.9223 24.0874 64.1733 21.4476 60.6344C20.7656 59.7201 21.072 58.4407 22.0418 57.8403C23.0117 57.2399 24.2764 57.5474 24.9748 58.4491C27.1352 61.2385 30.0127 63.4085 33.3166 64.716C37.2632 66.2778 41.6081 66.5258 45.7067 65.4232C49.8054 64.3207 53.4395 61.9263 56.0698 58.5953C58.7002 55.2642 60.1867 51.174 60.3089 46.9314C60.4311 42.6888 59.1824 38.5198 56.7481 35.0429C54.3138 31.5661 50.8235 28.9665 46.7951 27.6299C42.7667 26.2933 38.4148 26.2908 34.3848 27.6229C31.0111 28.7381 28.0136 30.7389 25.6962 33.3993C24.9471 34.2594 23.6667 34.4936 22.7331 33.8384Z" fill="#6F6F6F"/>
<path fill-rule="evenodd" clip-rule="evenodd" d="M64.0486 0.272095C60.9277 1.17632 45.7406 12.8382 40.7142 32.4413C39.7791 32.2335 38.848 32.0173 37.9134 31.8002C28.2987 29.5672 18.3247 27.2507 0 33.2063C24.1269 28.1798 48.7565 46.7777 32.1692 78.4442L37.1957 79.4495H41.7195L48.7565 65.8781C49.7618 68.7265 51.7724 75.1268 51.7724 77.9416C51.7724 80.7564 58.4743 75.4284 61.8252 72.4125C62.4748 66.7682 61.0501 61.7047 59.2987 55.4801C57.5255 49.178 55.4175 41.6858 54.7882 31.1957C53.5374 10.3443 60.3626 3.28796 64.0486 0.272095ZM33.544 28.3155C38.2942 28.3155 42.1451 24.561 42.1451 19.9295C42.1451 15.298 38.2942 11.5435 33.544 11.5435C28.7938 11.5435 24.943 15.298 24.943 19.9295C24.943 24.561 28.7938 28.3155 33.544 28.3155Z" fill="#0F172A"/>
<path d="M74.1633 47.9067C76.8329 47.9067 79.0261 50.0781 78.7173 52.7298C77.6968 61.4926 73.916 69.7013 67.907 76.0085C60.8061 83.4615 51.1753 87.6486 41.1332 87.6486C31.0911 87.6486 21.4603 83.4615 14.3594 76.0085C8.35037 69.7013 4.56964 61.4926 3.5491 52.7298C3.24028 50.0782 5.43349 47.9067 8.10306 47.9067C10.7726 47.9067 12.898 50.0839 13.3122 52.7212C14.2647 58.7851 17.0011 64.4314 21.1953 68.8335C26.4832 74.3837 33.655 77.5017 41.1332 77.5017C48.6114 77.5017 55.7832 74.3837 61.0711 68.8335C65.2653 64.4314 68.0017 58.7851 68.9542 52.7212C69.3684 50.0839 71.4938 47.9067 74.1633 47.9067Z" fill="#6F6F6F"/>
<rect width="8.28429" height="8.28429" rx="4.14215" transform="matrix(1 0 0 -1 16.5686 56.4869)" fill="#D9D9D9"/>
<rect width="2.36749" height="2.36749" rx="1.18374" transform="matrix(1 0 0 -1 21.8943 47.6108)" fill="#D9D9D9"/>
<path d="M130.723 46.4375V63.5H127.208V46.4375H130.723ZM137.52 53.7266V56.4688H129.762V53.7266H137.52ZM138.341 46.4375V49.1914H129.762V46.4375H138.341ZM142.06 46.4375H148.423C149.728 46.4375 150.849 46.6328 151.786 47.0234C152.732 47.4141 153.458 47.9922 153.966 48.7578C154.474 49.5234 154.728 50.4648 154.728 51.582C154.728 52.4961 154.571 53.2812 154.259 53.9375C153.954 54.5859 153.521 55.1289 152.958 55.5664C152.403 55.9961 151.751 56.3398 151.001 56.5977L149.888 57.1836H144.357L144.333 54.4414H148.446C149.064 54.4414 149.575 54.332 149.982 54.1133C150.388 53.8945 150.692 53.5898 150.896 53.1992C151.107 52.8086 151.212 52.3555 151.212 51.8398C151.212 51.293 151.11 50.8203 150.907 50.4219C150.704 50.0234 150.396 49.7188 149.982 49.5078C149.567 49.2969 149.048 49.1914 148.423 49.1914H145.575V63.5H142.06V46.4375ZM151.599 63.5L147.708 55.8945L151.423 55.8711L155.36 63.3359V63.5H151.599ZM162.853 46.4375V63.5H159.349V46.4375H162.853ZM181.713 46.4375V63.5H178.197L171.342 52.0625V63.5H167.826V46.4375H171.342L178.209 57.8867V46.4375H181.713ZM193.729 46.4375V63.5H190.225V46.4375H193.729ZM198.979 46.4375V49.1914H185.057V46.4375H198.979Z" fill="#6F6F6F"/>
</svg>
